<svg id="Lager_1" data-name="Lager 1" xmlns="http://www.w3.org/2000/svg" viewBox="0 0 488.88 436.03"><defs><style>.cls-1{fill:#61dafb;}</style></defs><title>react</title><path class="cls-1" d="M500.19,256.5c0-32.39-40.56-63.08-102.74-82.11,14.35-63.38,8-113.8-20.13-129.94A43.66,43.66,0,0,0,355,38.87V60.4s8.7.9,11.8,2.6c13.6,7.8,19.5,37.5,14.9,75.7-1.1,9.4-2.9,19.3-5.1,29.4a484.62,484.62,0,0,0-63.5-10.9,487.8,487.8,0,0,0-41.6-50C304.1,76.9,355,60.3,355,60.3V38.11c-27.39,0-63.25,19.52-99.5,53.38-36.25-33.66-72.11-53-99.5-53V61.39c20.63,0,51.22,16.44,83.71,46.43a468.9,468.9,0,0,0-41.16,49.73,465.57,465.57,0,0,0-63.38,11c-2.29-10-4-19.63-5.18-28.9-4.68-38.07,1.1-67.66,14.55-75.53,3-1.8,6.88-2.59,11.46-2.59V39.26a44.51,44.51,0,0,0-22.52,5.58c-28,16.15-34.28,66.47-19.83,129.65-62,19.13-102.34,49.72-102.34,82s40.56,63.08,102.74,82.11c-14.35,63.38-8,113.8,20.13,129.94,6.47,3.79,14,5.58,22.42,5.58,27.4,0,63.28-19.53,99.55-53.41,36.27,33.68,72.14,53,99.55,53a44.51,44.51,0,0,0,22.52-5.58c28-16.15,34.28-66.47,19.83-129.65,61.78-19,102.14-49.72,102.14-82ZM370.9,189.8c-3.7,12.9-8.3,26.2-13.5,39.5-4.1-8-8.4-16-13.1-24s-9.5-15.8-14.4-23.4c14.2,2.1,27.9,4.7,41,7.9ZM325.1,296.3c-7.8,13.5-15.8,26.3-24.1,38.2-14.9,1.3-30,2-45.2,2s-30.2-.7-45-1.9q-12.45-17.85-24.2-38Q175.2,277,165.8,256.8c6.2-13.4,13.2-26.8,20.7-39.9,7.8-13.5,15.8-26.3,24.1-38.2,14.9-1.3,30-2,45.2-2s30.2.7,45,1.9q12.45,17.85,24.2,38,11.4,19.65,20.8,39.8c-6.3,13.4-13.2,26.8-20.7,39.9Zm32.3-13c5.4,13.4,10,26.8,13.8,39.8-13.1,3.2-26.9,5.9-41.2,8,4.9-7.7,9.8-15.6,14.4-23.7s8.9-16.1,13-24.1ZM256,390a412.27,412.27,0,0,1-27.8-32c9,.4,18.2.7,27.5.7s18.7-.2,27.8-.7A390.33,390.33,0,0,1,256,390Zm-74.4-58.9c-14.2-2.1-27.9-4.7-41-7.9,3.7-12.9,8.3-26.2,13.5-39.5,4.1,8,8.4,16,13.1,24S176.7,323.5,181.6,331.1ZM255.5,123a412.27,412.27,0,0,1,27.8,32c-9-.4-18.2-.7-27.5-.7s-18.7.2-27.8.7A390.33,390.33,0,0,1,255.5,123Zm-74,58.9c-4.9,7.7-9.8,15.6-14.4,23.7s-8.9,16-13,24c-5.4-13.4-10-26.8-13.8-39.8,13.1-3.1,26.9-5.8,41.2-7.9ZM91,307.1C55.6,292,32.7,272.2,32.7,256.5S55.6,220.9,91,205.9c8.6-3.7,18-7,27.7-10.1a480.28,480.28,0,0,0,22.5,60.9A473.51,473.51,0,0,0,119,317.3c-9.9-3.1-19.3-6.5-28-10.2ZM144.8,450c-13.6-7.8-19.5-37.5-14.9-75.7,1.1-9.4,2.9-19.3,5.1-29.4a484.62,484.62,0,0,0,63.5,10.9,487.8,487.8,0,0,0,41.6,50c-32.6,30.3-63.2,46.9-84,46.9a23.87,23.87,0,0,1-11.3-2.7ZM382,373.8c4.7,38.2-1.1,67.9-14.6,75.8-3,1.8-6.9,2.6-11.5,2.6-20.7,0-51.4-16.5-84-46.6a472.31,472.31,0,0,0,41.3-49.9,467,467,0,0,0,63.6-11A279.94,279.94,0,0,1,382,373.8Zm38.5-66.7c-8.6,3.7-18,7-27.7,10.1a480.28,480.28,0,0,0-22.5-60.9,473.51,473.51,0,0,0,22.2-60.6c9.9,3.1,19.3,6.5,28.1,10.2,35.4,15.1,58.3,34.9,58.3,50.6s-23,35.6-58.4,50.6Z" transform="translate(-11.31 -38.11)"/><circle class="cls-1" cx="244.39" cy="218.39" r="45.7"/><path class="cls-1" d="M355.3,38.1" transform="translate(-11.31 -38.11)"/></svg>